<svg width="268" height="41" viewBox="0 0 268 41" fill="none" xmlns="http://www.w3.org/2000/svg">
<g filter="url(#filter0_d)">
<path fill-rule="evenodd" clip-rule="evenodd" d="M263.085 1.883L265.144 3.98198C265.144 3.98202 265.144 3.98193 265.144 3.98198C266.286 5.14501 266.282 7.0145 265.147 8.17679L265.138 8.1863L264.229 9.08416L255.22 17.9885C254.85 18.3618 254.395 18.6202 253.912 18.7554L253.903 18.7579L249.629 19.9257C249.629 19.9258 249.629 19.9257 249.629 19.9257C248.025 20.3641 246.674 18.8731 247.069 17.3709L248.219 13.0056C248.349 12.5246 248.599 12.0624 248.969 11.6841L248.978 11.6753L258.01 2.74802L258.896 1.87224C260.053 0.708064 261.931 0.706866 263.085 1.883ZM258.817 4.05999L258.819 4.06247L262.934 8.25523L264.074 7.12884C264.641 6.54778 264.641 5.61077 264.074 5.03264L262.014 2.93352C261.447 2.3554 260.527 2.3554 259.957 2.93352L258.817 4.05999ZM250.041 12.7333C249.862 12.9169 249.734 13.1484 249.666 13.3974L248.52 17.7524C248.404 18.1943 248.799 18.5976 249.233 18.4789L253.507 17.311C253.751 17.2426 253.978 17.1122 254.159 16.9282L262.112 9.06836L257.994 4.87298L250.041 12.7333Z" fill="#29292B"/>
</g>
<path fill-rule="evenodd" clip-rule="evenodd" d="M259.956 2.93359C260.526 2.35547 261.446 2.35547 262.014 2.93359L264.073 5.03271C264.641 5.61084 264.641 6.54785 264.073 7.12891L262.934 8.25537L258.816 4.06006L259.956 2.93359ZM257.993 4.87305L250.041 12.7334C249.861 12.917 249.733 13.1484 249.666 13.3975L248.52 17.7524C248.403 18.1943 248.799 18.5977 249.232 18.479L253.507 17.311C253.751 17.2427 253.978 17.1123 254.158 16.9282L262.111 9.06836L257.993 4.87305Z" fill="white"/>
<path d="M4.18322 27.1949C73.9436 10.0344 189.519 10.5629 239.182 19.8024" stroke="#FD5E60" stroke-width="8" stroke-linecap="round" stroke-linejoin="round"/>
<defs>
<filter id="filter0_d" x="245" y="0" width="22.9992" height="23.0035" filterUnits="userSpaceOnUse" color-interpolation-filters="sRGB">
<feFlood flood-opacity="0" result="BackgroundImageFix"/>
<feColorMatrix in="SourceAlpha" type="matrix" values="0 0 0 0 0 0 0 0 0 0 0 0 0 0 0 0 0 0 127 0"/>
<feOffset dy="1"/>
<feGaussianBlur stdDeviation="1"/>
<feColorMatrix type="matrix" values="0 0 0 0 0 0 0 0 0 0 0 0 0 0 0 0 0 0 0.35 0"/>
<feBlend mode="normal" in2="BackgroundImageFix" result="effect1_dropShadow"/>
<feBlend mode="normal" in="SourceGraphic" in2="effect1_dropShadow" result="shape"/>
</filter>
</defs>
</svg>
