<svg xmlns="http://www.w3.org/2000/svg" width="1161.141" height="327.377" viewBox="0 0 1161.141 327.377">
  <g id="Group_553" data-name="Group 553" transform="translate(-452.059 -2118.123)">
    <path id="Path_16579" data-name="Path 16579" d="M2.481,53.611A2.207,2.207,0,1,1,.274,55.818,2.207,2.207,0,0,1,2.481,53.611Zm14.4-1.646a2.586,2.586,0,1,1-2.586,2.586A2.586,2.586,0,0,1,16.877,51.965Zm33.78-3.352a3.381,3.381,0,1,1-3.82,3.352A3.609,3.609,0,0,1,50.657,48.614Zm13.9-2.643a3.82,3.82,0,1,1-3.821,3.82A3.82,3.82,0,0,1,64.552,45.97Zm-31.4,2.339a2.586,2.586,0,1,1-2.586,2.586A2.586,2.586,0,0,1,33.149,48.309ZM9.63,44.378a2.725,2.725,0,0,1,0,5.413,2.725,2.725,0,0,1,0-5.413Zm15.3-1.92a3.082,3.082,0,1,1-2.916,3.078A3,3,0,0,1,24.928,42.458Zm15.044-4.247A2.967,2.967,0,1,1,37,41.178,2.967,2.967,0,0,1,39.972,38.211Zm17.472-2.967a2.967,2.967,0,1,1-2.967,2.967A2.967,2.967,0,0,1,57.444,35.244ZM28.819,25.82A3.737,3.737,0,0,1,32.7,29.4a3.737,3.737,0,0,1-3.88,3.576A3.738,3.738,0,0,1,24.938,29.4,3.737,3.737,0,0,1,28.819,25.82Zm-14.546-.294a3.164,3.164,0,0,1,0,6.308,3.164,3.164,0,0,1,0-6.308Zm32.465-3.891a2.946,2.946,0,1,1-2.946,2.946A2.946,2.946,0,0,1,46.737,21.635ZM18.214,14.118A3.413,3.413,0,1,1,14.8,17.531,3.413,3.413,0,0,1,18.214,14.118Zm14.952-.406a3.413,3.413,0,1,1-3.413,3.413A3.413,3.413,0,0,1,33.166,13.712ZM23.415.629a2.479,2.479,0,1,1-2.479,2.479A2.479,2.479,0,0,1,23.415.629Z" transform="translate(451.421 2294.852) rotate(-88)" fill="#1baaa0"/>
    <g id="Group_547" data-name="Group 547" transform="translate(595.462 2118.123)">
      <path id="Path_16580" data-name="Path 16580" d="M31.412,14.02a15.948,15.948,0,0,1,.064,2.72L16.74,31.476a15.846,15.846,0,0,1-2.72-.065ZM30.26,9.6a15.649,15.649,0,0,1,.713,2.072l-19.3,19.3A15.693,15.693,0,0,1,9.6,30.26ZM30.9,20.1A15.767,15.767,0,0,1,20.1,30.9ZM28.2,6.093A15.614,15.614,0,0,1,29.328,7.75L7.75,29.327A15.68,15.68,0,0,1,6.093,28.2ZM26.9,4.614,4.615,26.894A15.754,15.754,0,0,1,26.9,4.614Z" fill="#5095ff"/>
    </g>
    <g id="Group_549" data-name="Group 549" transform="matrix(-0.358, 0.934, -0.934, -0.358, 1466.239, 2232.732)">
      <path id="Path_16581" data-name="Path 16581" d="M37.946,12a2.986,2.986,0,0,0-2.807,1.988A5.948,5.948,0,0,1,23.6,12,11.9,11.9,0,0,0,.48,8.116,2.95,2.95,0,0,0,3.3,12a2.986,2.986,0,0,0,2.807-1.988A5.948,5.948,0,0,1,17.653,12,11.9,11.9,0,0,0,40.77,15.884,2.951,2.951,0,0,0,37.946,12" fill="#1baaa0"/>
    </g>
    <g id="Group_550" data-name="Group 550" transform="translate(1391.653 2388.5)">
      <path id="Path_16592" data-name="Path 16592" d="M73.515,27.322c1.593-3.369,2.677-6.27,2.457-7.136s-1.736.308-5.412,5.026c-2.243,2.733-4.825,6.123-6.867,8.8L61,37.563q.641-1.459,1.283-2.922c1.249-2.854,2.491-5.724,3.687-8.634s2.351-5.857,3.384-8.911c.513-1.53,1-3.085,1.408-4.713.205-.814.392-1.648.544-2.519l.059-.351.082-.558c.046-.377.1-.766.121-1.145a13.283,13.283,0,0,0,0-2.23A8.233,8.233,0,0,0,71.145,3.6,6.177,6.177,0,0,0,70.3,2,5.157,5.157,0,0,0,69.013.781C68.887.7,68.757.617,68.627.538l-.206-.1L68.37.412c-.022,0-.036-.013-.055-.018l-.1-.047A4.214,4.214,0,0,0,67.341.08a5.135,5.135,0,0,0-3.414.6,12.67,12.67,0,0,0-3.305,2.781c-.131.14-.256.287-.381.434l-.188.22-.152.18-.4.5q-.4.5-.77,1c-.5.665-.973,1.331-1.432,2-.918,1.336-1.781,2.679-2.618,4.027-1.672,2.7-3.244,5.412-4.787,8.133-2.606,4.6-5.115,9.224-7.653,13.786.661-1.928,1.324-3.863,1.97-5.82q.618-1.872,1.208-3.777l.437-1.455q.274-.931.525-1.861c.335-1.238.627-2.464.847-3.631a18.12,18.12,0,0,0,.343-3.172,8.9,8.9,0,0,0-.083-1.262,6.415,6.415,0,0,0-.237-1.019,4.758,4.758,0,0,0-.812-1.522,4.282,4.282,0,0,0-.629-.631,4.187,4.187,0,0,0-.99-.592,4.961,4.961,0,0,0-1.151-.315,4.727,4.727,0,0,0-1-.033A5.146,5.146,0,0,0,40.89,9.1a6.917,6.917,0,0,0-.9.5,9.085,9.085,0,0,0-.937.73,14.216,14.216,0,0,0-1.964,2.244,39.832,39.832,0,0,0-2.975,4.992l-.346.68-.319.638L33.1,19.6l-.675,1.427c-.884,1.9-1.712,3.807-2.519,5.709s-1.589,3.8-2.364,5.7L26.2,35.712a.129.129,0,0,1-.019.036c-.009-.008,0-.027,0-.039l.269-1.533c.321-1.821.644-3.651.952-5.5q.231-1.385.446-2.786l.156-1.061c.059-.392.12-.864.181-1.319.12-.911.226-1.82.3-2.706s.128-1.751.135-2.564c.009-.212,0-.4-.009-.59l-.021-.575c-.013-.183-.036-.349-.053-.525l-.028-.26-.014-.13-.023-.115a7.037,7.037,0,0,0-.2-.877c-.042-.129-.077-.274-.125-.389l-.144-.345a4.69,4.69,0,0,0-.7-1.1l-.206-.218-.223-.2a2.422,2.422,0,0,0-.543-.357c-.211-.1-.461-.249-.749-.372a4.888,4.888,0,0,0-.792-.174,3.963,3.963,0,0,0-1.237.063,4.6,4.6,0,0,0-1.226.456,6.553,6.553,0,0,0-1.361,1.018,13.248,13.248,0,0,0-1.451,1.669,44.635,44.635,0,0,0-2.845,4.456L16,20.88l-.463.84-.671,1.246q-.664,1.246-1.305,2.491c-.857,1.661-1.693,3.322-2.522,4.979Q10.3,31.922,9.559,33.4q.739-2.886,1.521-5.772,1.42-5.25,2.927-10.492a1.815,1.815,0,0,0-.112-.569c-1.75-4.114-4.6-2.778-5.894-1.631a.553.553,0,0,0-.272.368Q6.223,20.586,4.781,25.895C3.812,29.486,2.87,33.088,2,36.741,1.57,38.569,1.153,40.4.785,42.289c-.185.941-.357,1.895-.5,2.887q-.111.741-.193,1.535A16.48,16.48,0,0,0,0,48.481c.008.19.011.357.028.566a6.125,6.125,0,0,0,.1.728,3.957,3.957,0,0,0,.12.482q.047.15.1.3l.056.146c.028.066.065.143.1.212.071.143.15.283.234.417l.065.1.106.142c.074.1.153.188.236.277s.169.175.258.255c.049.044.08.073.145.124s.126.095.192.139a3.836,3.836,0,0,0,.844.437A3.587,3.587,0,0,0,3.515,53,4.014,4.014,0,0,0,3.954,53c.129-.007.242-.02.363-.038l.178-.031c.061-.012.118-.024.159-.035.091-.023.181-.05.271-.079a3.633,3.633,0,0,0,.445-.177,4.584,4.584,0,0,0,.99-.637,7.208,7.208,0,0,0,.89-.9,15.734,15.734,0,0,0,1.043-1.416c.294-.443.561-.874.817-1.3,1.015-1.7,1.892-3.365,2.76-5.034,1.722-3.33,3.348-6.65,4.994-9.942q1.233-2.467,2.482-4.9.627-1.214,1.264-2.413l.845-1.564-.485,3.052c-.3,1.8-.621,3.615-.942,5.437l-.686,3.945c-.308,1.817-.606,3.641-.848,5.4a43.856,43.856,0,0,0-.476,5.326l0,.548,0,.273.018.241.034.481a1.733,1.733,0,0,0,.026.221l.032.205c.022.134.041.28.066.405l.085.35.043.175.051.151.1.3a4.394,4.394,0,0,0,1.058,1.6,3.713,3.713,0,0,0,.344.28c.133.082.269.149.444.24s.378.208.666.332a6.931,6.931,0,0,0,.777.159,3.682,3.682,0,0,0,.97-.032,3.874,3.874,0,0,0,.835-.233,5.05,5.05,0,0,0,1.9-1.4,11.4,11.4,0,0,0,1.138-1.549c.4-.63.8-1.367,1.208-2.165.815-1.6,1.629-3.435,2.424-5.285l1.182-2.812.987-2.4,1.161-2.837c.772-1.887,1.545-3.764,2.332-5.624s1.59-3.7,2.427-5.5l.634-1.342.346-.709-.124.407c-.372,1.211-.763,2.426-1.166,3.644-.8,2.436-1.649,4.881-2.491,7.343s-1.688,4.941-2.478,7.492c-.393,1.28-.774,2.572-1.11,3.948-.167.692-.324,1.4-.446,2.2a12.86,12.86,0,0,0-.136,1.325,8.17,8.17,0,0,0,.007.853,5.42,5.42,0,0,0,.224,1.249c.017.06.043.136.072.213l.089.225c.031.075.078.172.121.255s.083.161.147.265A3.918,3.918,0,0,0,33.1,52.348a3.726,3.726,0,0,0,.813.433,4.228,4.228,0,0,0,.44.141,3.85,3.85,0,0,0,.427.079,3.455,3.455,0,0,0,.416.032c.123,0,.248,0,.371-.012L35.749,53l.153-.024q.149-.026.3-.061a4.642,4.642,0,0,0,1.449-.648l.225-.155.191-.146c.132-.1.227-.186.336-.28a10.883,10.883,0,0,0,.973-.993c.271-.311.511-.611.741-.908.9-1.182,1.644-2.32,2.368-3.464,1.433-2.282,2.739-4.559,4.028-6.839,2.95-5.237,5.77-10.48,8.679-15.636,1.454-2.576,2.925-5.131,4.445-7.622.76-1.245,1.533-2.474,2.326-3.668S63.566,10.2,64.4,9.136l.529-.657-.09.514a38.334,38.334,0,0,1-1.012,3.984C63,15.685,61.979,18.42,60.9,21.142s-2.235,5.444-3.412,8.165l-3.583,8.185c-1.2,2.747-2.4,5.5-3.527,8.373-.281.721-.556,1.453-.82,2.211s-.518,1.537-.744,2.422a11.969,11.969,0,0,0-.293,1.52,6.525,6.525,0,0,0-.046,1.115c0,.108.019.263.034.391.006.06.02.149.035.231l.049.246c.019.084.051.2.081.3l.049.151c.016.047.035.1.062.167.051.124.107.247.168.366.027.055.064.122.11.2s.088.141.135.21a3.789,3.789,0,0,0,.759.817,4.149,4.149,0,0,0,.514.341,3.631,3.631,0,0,0,.55.244c.094.033.19.063.286.09s.173.04.261.057a4.315,4.315,0,0,0,.52.061,4.015,4.015,0,0,0,.426-.007l.207-.018c.074-.008.132-.017.181-.026q.156-.029.312-.066l.154-.04.122-.038.231-.082c.077-.029.157-.061.209-.086.117-.053.238-.11.347-.167l.276-.158a7.313,7.313,0,0,0,.814-.577c.115-.092.217-.179.314-.265s.191-.171.282-.255a22.669,22.669,0,0,0,1.786-1.916c.525-.624,1.016-1.244,1.492-1.864.948-1.24,1.84-2.483,2.711-3.732l.922-1.336.751-1.108,1.479-2.223,1.437-2.524c.851-1.513,1.964-3.526,3.043-5.528,2.16-4,4.189-7.95,3.929-7.657" fill="#f84f77"/>
    </g>
    <path id="Path_16593" data-name="Path 16593" d="M16.141,28.247a4.035,4.035,0,0,1-8.07,0Zm16.141,0a4.035,4.035,0,0,1-8.07,0ZM4.035,24.211A4.035,4.035,0,0,1,8.07,28.247H0a4.035,4.035,0,0,1,4.035-4.035Zm16.141,0a4.035,4.035,0,0,1,4.035,4.035h-8.07a4.035,4.035,0,0,1,4.035-4.035Zm-4.035-4.035a4.035,4.035,0,0,1-8.07,0Zm16.141,0a4.035,4.035,0,1,1-8.07,0ZM4.035,16.141A4.035,4.035,0,0,1,8.07,20.176H0a4.035,4.035,0,0,1,4.035-4.035Zm16.141,0a4.035,4.035,0,0,1,4.035,4.035h-8.07a4.035,4.035,0,0,1,4.035-4.035Zm-4.035-4.035a4.035,4.035,0,0,1-8.07,0Zm16.141,0a4.035,4.035,0,0,1-8.07,0ZM4.035,8.07A4.035,4.035,0,0,1,8.07,12.106H0A4.035,4.035,0,0,1,4.035,8.07Zm16.141,0a4.035,4.035,0,0,1,4.035,4.035h-8.07A4.035,4.035,0,0,1,20.176,8.07ZM16.141,4.035a4.035,4.035,0,0,1-8.07,0Zm16.141,0a4.035,4.035,0,0,1-8.07,0ZM4.035,0A4.035,4.035,0,0,1,8.07,4.035H0A4.035,4.035,0,0,1,4.035,0ZM20.176,0a4.035,4.035,0,0,1,4.035,4.035h-8.07A4.035,4.035,0,0,1,20.176,0Z" transform="translate(520.918 2412.918)" fill="#f84f77"/>
    <path id="Path_16594" data-name="Path 16594" d="M16.141,28.247a4.035,4.035,0,0,1-8.07,0Zm16.141,0a4.035,4.035,0,0,1-8.07,0ZM4.035,24.211A4.035,4.035,0,0,1,8.07,28.247H0a4.035,4.035,0,0,1,4.035-4.035Zm16.141,0a4.035,4.035,0,0,1,4.035,4.035h-8.07a4.035,4.035,0,0,1,4.035-4.035Zm-4.035-4.035a4.035,4.035,0,0,1-8.07,0Zm16.141,0a4.035,4.035,0,1,1-8.07,0ZM4.035,16.141A4.035,4.035,0,0,1,8.07,20.176H0a4.035,4.035,0,0,1,4.035-4.035Zm16.141,0a4.035,4.035,0,0,1,4.035,4.035h-8.07a4.035,4.035,0,0,1,4.035-4.035Zm-4.035-4.035a4.035,4.035,0,0,1-8.07,0Zm16.141,0a4.035,4.035,0,0,1-8.07,0ZM4.035,8.07A4.035,4.035,0,0,1,8.07,12.106H0A4.035,4.035,0,0,1,4.035,8.07Zm16.141,0a4.035,4.035,0,0,1,4.035,4.035h-8.07A4.035,4.035,0,0,1,20.176,8.07ZM16.141,4.035a4.035,4.035,0,0,1-8.07,0Zm16.141,0a4.035,4.035,0,0,1-8.07,0ZM4.035,0A4.035,4.035,0,0,1,8.07,4.035H0A4.035,4.035,0,0,1,4.035,0ZM20.176,0a4.035,4.035,0,0,1,4.035,4.035h-8.07A4.035,4.035,0,0,1,20.176,0Z" transform="translate(1580.918 2278.918)" fill="#5095ff"/>
  </g>
</svg>
